<svg width="1058" height="409" viewBox="0 0 1058 409" fill="none" xmlns="http://www.w3.org/2000/svg">
<path d="M897.324 261.121V112.154L797.875 261.121H897.324ZM897.324 402V327.179H721.765L715 260.784L911.87 7H1013.69V261.121H1058V327.179H1013.69V402H897.324Z" fill="white"/>
<path d="M182.324 261.121V112.154L82.8748 261.121H182.324ZM182.324 402V327.179H6.76529L0 260.784L196.87 7H298.687V261.121H343V327.179H298.687V402H182.324Z" fill="white"/>
<path d="M556 259L654 329V80L556 149V259Z" fill="#76CBB0"/>
<path d="M405 329L501 259V149L405 80V329Z" fill="#21765B"/>
<path d="M501 0V149L405 80L501 0Z" fill="#76CBB0"/>
<path d="M501 409V259L405 329L501 409Z" fill="#103B2E"/>
<path d="M556 0V149L654 80L556 0Z" fill="#BAE5D8"/>
<path d="M556 409V259L654 329L556 409Z" fill="#21765B"/>
<rect x="501" y="149" width="55" height="110" fill="#31B189"/>
<path d="M432 80.5C416.816 80.5 404.5 92.8164 404.5 108C404.5 92.8164 392.184 80.5 377 80.5C392.184 80.5 404.5 68.1836 404.5 53C404.5 68.1836 416.816 80.5 432 80.5Z" fill="white"/>
<path d="M681 329.5C665.816 329.5 653.5 341.816 653.5 357C653.5 341.816 641.184 329.5 626 329.5C641.184 329.5 653.5 317.184 653.5 302C653.5 317.184 665.816 329.5 681 329.5Z" fill="white"/>
<mask id="mask0_78_30" style="mask-type:alpha" maskUnits="userSpaceOnUse" x="405" y="0" width="249" height="409">
<path fill-rule="evenodd" clip-rule="evenodd" d="M501 149V0L405 80V329L501 409V259H556V409L654 329V80L556 0V149H501Z" fill="#4CDB7C"/>
</mask>
<g mask="url(#mask0_78_30)">
<path opacity="0.5" d="M676.939 63.0003L269.395 201.105L294.029 273.8L701.573 135.695L676.939 63.0003Z" fill="white"/>
<path opacity="0.25" d="M756.391 145.33L251 316.592L264.931 357.703L770.323 186.441L756.391 145.33Z" fill="white"/>
</g>
</svg>
