<svg width="918" height="409" viewBox="0 0 918 409" fill="none" xmlns="http://www.w3.org/2000/svg">
<path d="M861.828 287.082C861.828 297.336 862.6 304.47 864.145 308.485C865.751 312.5 868.53 314.508 872.484 314.508C875.387 314.508 877.58 313.797 879.062 312.377C880.545 310.894 881.656 307.898 882.398 303.389C883.201 298.818 883.602 291.993 883.602 282.913V260.583C883.602 251.75 882.737 245.172 881.008 240.848C879.278 236.524 876.437 234.362 872.484 234.362C868.53 234.362 865.751 236.493 864.145 240.755C862.6 244.955 861.828 252.646 861.828 263.826V287.082ZM870.538 331C865.411 331 860.778 330.537 856.64 329.61C852.563 328.684 849.042 327.387 846.077 325.719C843.112 324.051 840.518 321.92 838.294 319.326C836.132 316.731 834.372 313.952 833.013 310.987C831.716 308.022 830.666 304.563 829.863 300.61C829.06 296.595 828.504 292.61 828.195 288.657C827.886 284.642 827.732 280.133 827.732 275.13C827.732 267.717 828.102 261.262 828.844 255.765C829.647 250.268 831.098 245.11 833.198 240.292C835.298 235.412 838.078 231.459 841.537 228.432C845.058 225.405 849.567 223.027 855.065 221.298C860.624 219.568 867.171 218.703 874.707 218.703C879.896 218.703 884.56 219.198 888.698 220.186C892.837 221.112 896.388 222.41 899.353 224.077C902.318 225.745 904.882 227.907 907.044 230.563C909.267 233.219 911.028 236.061 912.325 239.087C913.684 242.052 914.765 245.542 915.568 249.557C916.371 253.572 916.927 257.556 917.236 261.51C917.544 265.463 917.699 269.941 917.699 274.944C917.699 282.357 917.297 288.812 916.494 294.309C915.691 299.807 914.24 304.964 912.14 309.782C910.039 314.539 907.229 318.43 903.708 321.457C900.187 324.422 895.647 326.769 890.088 328.499C884.59 330.166 878.074 331 870.538 331Z" fill="white"/>
<path d="M769.204 329.055V245.017H747.523V220.464H822.202V245.017H800.521V329.055H769.204Z" fill="white"/>
<path d="M691.399 274.296C691.399 267.439 693.067 262.621 696.403 259.842C699.738 257.062 703.722 255.672 708.355 255.672C713.173 255.672 717.25 257.062 720.585 259.842C724.106 262.621 725.867 267.439 725.867 274.296C725.867 280.967 724.106 285.785 720.585 288.75C717.25 291.715 713.173 293.197 708.355 293.197C703.722 293.197 699.738 291.715 696.403 288.75C693.067 285.785 691.399 280.967 691.399 274.296Z" fill="white"/>
<path d="M599.201 329.055H569.922L544.072 220.464H574.926L579.836 257.896L587.156 294.217L596.514 257.896L598.923 247.982L591.789 220.464H622.087L628.758 257.896L636.911 294.217L642.007 257.896L647.474 220.464H675.641L651.736 329.055H620.141L608.744 285.415L599.201 329.055Z" fill="white"/>
<path d="M488.859 287.082C488.859 297.336 489.632 304.47 491.176 308.485C492.782 312.5 495.561 314.508 499.515 314.508C502.418 314.508 504.611 313.797 506.093 312.377C507.576 310.894 508.687 307.898 509.429 303.389C510.232 298.818 510.633 291.993 510.633 282.913V260.583C510.633 251.75 509.768 245.172 508.039 240.848C506.309 236.524 503.468 234.362 499.515 234.362C495.561 234.362 492.782 236.493 491.176 240.755C489.632 244.955 488.859 252.646 488.859 263.826V287.082ZM497.569 331C492.442 331 487.809 330.537 483.671 329.61C479.594 328.684 476.073 327.387 473.108 325.719C470.143 324.051 467.549 321.92 465.325 319.326C463.163 316.731 461.403 313.952 460.044 310.987C458.747 308.022 457.697 304.563 456.894 300.61C456.091 296.595 455.535 292.61 455.226 288.657C454.917 284.642 454.763 280.133 454.763 275.13C454.763 267.717 455.133 261.262 455.875 255.765C456.678 250.268 458.129 245.11 460.229 240.292C462.329 235.412 465.109 231.459 468.568 228.432C472.089 225.405 476.598 223.027 482.096 221.298C487.655 219.568 494.202 218.703 501.738 218.703C506.927 218.703 511.591 219.198 515.729 220.186C519.868 221.112 523.419 222.41 526.384 224.077C529.349 225.745 531.913 227.907 534.075 230.563C536.298 233.219 538.059 236.061 539.356 239.087C540.715 242.052 541.796 245.542 542.599 249.557C543.402 253.572 543.958 257.556 544.267 261.51C544.575 265.463 544.73 269.941 544.73 274.944C544.73 282.357 544.328 288.812 543.525 294.309C542.722 299.807 541.271 304.964 539.171 309.782C537.07 314.539 534.26 318.43 530.739 321.457C527.218 324.422 522.678 326.769 517.119 328.499C511.621 330.166 505.105 331 497.569 331Z" fill="white"/>
<path d="M390.669 329.055H360V220.464H390.669V263.455H414.481V220.464H445.149V329.055H414.481V284.766H390.669V329.055Z" fill="white"/>
<path d="M907.586 188.961H841.894V80.3706H906.196L904.343 102.237L872.563 101.31V122.25H897.579V143.931L872.563 142.078V166.724L907.586 165.798V188.961Z" fill="white"/>
<path d="M774.071 188.961V80.3706H804.74V164.13H832.351V188.961H774.071Z" fill="white"/>
<path d="M711.622 190.907C705.26 190.907 699.608 190.289 694.667 189.054C689.787 187.818 685.772 186.151 682.622 184.051C679.533 181.95 676.97 179.356 674.931 176.268C672.955 173.117 671.565 169.813 670.762 166.354C669.959 162.895 669.557 159.065 669.557 154.865V80.3706H702.542V150.695C702.542 158.54 703.345 163.945 704.951 166.91C706.619 169.813 709.028 171.264 712.178 171.264C713.908 171.264 715.421 170.986 716.718 170.43C718.015 169.813 719.22 168.794 720.332 167.373C721.444 165.89 722.278 163.79 722.834 161.072C723.451 158.293 723.76 154.926 723.76 150.973V80.3706H753.039V155.42C753.039 159.559 752.668 163.296 751.927 166.632C751.247 169.967 749.95 173.21 748.035 176.36C746.182 179.449 743.712 182.043 740.623 184.143C737.596 186.182 733.612 187.818 728.671 189.054C723.791 190.289 718.108 190.907 711.622 190.907Z" fill="white"/>
<path d="M599.14 153.289V189.425H568.379V80.8339H580.61C583.574 80.8339 587.991 80.7103 593.859 80.4633C599.727 80.1544 604.576 80 608.406 80C621.748 80 631.693 82.934 638.24 88.8021C644.85 94.6702 648.154 103.658 648.154 115.764C648.154 122.93 646.579 129.292 643.429 134.851C640.341 140.41 636.233 144.827 631.106 148.101C633.886 148.78 636.264 150.355 638.24 152.826C640.279 155.297 641.854 158.231 642.966 161.628C644.078 164.964 645.035 168.361 645.838 171.82C646.703 175.218 647.66 178.584 648.71 181.92C649.822 185.255 651.027 187.757 652.324 189.425H618.134C617.455 188.56 616.93 186.151 616.559 182.197C616.189 178.182 615.664 173.395 614.984 167.836C614.367 162.215 613.471 157.521 612.297 153.753C612.174 153.753 612.019 153.753 611.834 153.753C610.66 153.753 609.394 153.753 608.035 153.753C606.738 153.691 605.595 153.629 604.607 153.567C603.619 153.506 602.569 153.444 601.457 153.382C600.407 153.32 599.635 153.289 599.14 153.289ZM599.14 136.056H602.105C603.65 136.056 604.947 135.994 605.997 135.87C607.047 135.747 608.19 135.531 609.425 135.222C610.722 134.851 611.772 134.295 612.575 133.554C613.44 132.813 614.243 131.855 614.984 130.682C615.725 129.508 616.281 127.995 616.652 126.142C617.023 124.289 617.208 122.127 617.208 119.656V112.336C617.208 106.962 615.787 103.225 612.946 101.125C610.166 98.9632 606.151 97.8822 600.901 97.8822H599.14V136.056Z" fill="white"/>
<path d="M492.403 188.591V154.679L461.642 80H496.757L506.301 107.982L512.694 130.867L517.975 107.982L525.202 80H552.813L525.666 154.123V188.591H492.403Z" fill="white"/>
<path d="M391.132 188.591H360.463V80H391.132V122.992H414.944V80H445.612V188.591H414.944V144.302H391.132V188.591Z" fill="white"/>
<path d="M179 259L277 329V80L179 149V259Z" fill="#76CBB0"/>
<path d="M28 329L124 259V149L28 80V329Z" fill="#21765B"/>
<path d="M124 0V149L28 80L124 0Z" fill="#76CBB0"/>
<path d="M124 409V259L28 329L124 409Z" fill="#103B2E"/>
<path d="M179 0V149L277 80L179 0Z" fill="#BAE5D8"/>
<path d="M179 409V259L277 329L179 409Z" fill="#21765B"/>
<rect x="124" y="149" width="55" height="110" fill="#31B189"/>
<path d="M55 80.5C39.8164 80.5 27.5 92.8164 27.5 108C27.5 92.8164 15.1836 80.5 0 80.5C15.1836 80.5 27.5 68.1836 27.5 53C27.5 68.1836 39.8164 80.5 55 80.5Z" fill="white"/>
<path d="M304 329.5C288.816 329.5 276.5 341.816 276.5 357C276.5 341.816 264.184 329.5 249 329.5C264.184 329.5 276.5 317.184 276.5 302C276.5 317.184 288.816 329.5 304 329.5Z" fill="white"/>
<mask id="mask0_29_79" style="mask-type:alpha" maskUnits="userSpaceOnUse" x="28" y="0" width="249" height="409">
<path fill-rule="evenodd" clip-rule="evenodd" d="M124 149V0L28 80V329L124 409V259H179V409L277 329V80L179 0V149H124Z" fill="#4CDB7C"/>
</mask>
<g mask="url(#mask0_29_79)">
<path opacity="0.5" d="M299.939 63.0003L-107.605 201.105L-82.9714 273.8L324.573 135.695L299.939 63.0003Z" fill="white"/>
<path opacity="0.25" d="M379.391 145.33L-126 316.592L-112.069 357.703L393.323 186.441L379.391 145.33Z" fill="white"/>
</g>
</svg>
