<svg width="558" height="251" viewBox="0 0 558 251" fill="none" xmlns="http://www.w3.org/2000/svg">
<path d="M501.828 207.082C501.828 217.336 502.601 224.47 504.145 228.485C505.751 232.5 508.53 234.508 512.484 234.508C515.387 234.508 517.58 233.797 519.062 232.377C520.545 230.894 521.656 227.898 522.398 223.389C523.201 218.818 523.602 211.993 523.602 202.913V180.583C523.602 171.75 522.737 165.172 521.008 160.848C519.278 156.524 516.437 154.362 512.484 154.362C508.53 154.362 505.751 156.493 504.145 160.755C502.601 164.955 501.828 172.646 501.828 183.826V207.082ZM510.538 251C505.411 251 500.778 250.537 496.64 249.61C492.563 248.684 489.042 247.387 486.077 245.719C483.112 244.051 480.518 241.92 478.294 239.326C476.132 236.731 474.372 233.952 473.013 230.987C471.716 228.022 470.666 224.563 469.863 220.61C469.06 216.595 468.504 212.61 468.195 208.657C467.886 204.642 467.732 200.133 467.732 195.13C467.732 187.717 468.102 181.262 468.844 175.765C469.647 170.268 471.098 165.11 473.198 160.292C475.298 155.412 478.078 151.459 481.537 148.432C485.058 145.405 489.567 143.027 495.065 141.298C500.624 139.568 507.171 138.703 514.707 138.703C519.896 138.703 524.56 139.198 528.698 140.186C532.837 141.112 536.388 142.41 539.353 144.077C542.318 145.745 544.882 147.907 547.044 150.563C549.267 153.219 551.028 156.061 552.325 159.087C553.684 162.052 554.765 165.542 555.568 169.557C556.371 173.572 556.927 177.556 557.236 181.51C557.544 185.463 557.699 189.941 557.699 194.944C557.699 202.357 557.297 208.812 556.494 214.309C555.691 219.807 554.24 224.964 552.14 229.782C550.039 234.539 547.229 238.43 543.708 241.457C540.187 244.422 535.647 246.769 530.088 248.499C524.59 250.166 518.074 251 510.538 251Z" fill="#002922"/>
<path d="M409.204 249.055V165.017H387.523V140.464H462.202V165.017H440.521V249.055H409.204Z" fill="#002922"/>
<path d="M331.399 194.296C331.399 187.439 333.067 182.621 336.402 179.842C339.738 177.062 343.722 175.672 348.355 175.672C353.173 175.672 357.25 177.062 360.585 179.842C364.106 182.621 365.867 187.439 365.867 194.296C365.867 200.967 364.106 205.785 360.585 208.75C357.25 211.715 353.173 213.197 348.355 213.197C343.722 213.197 339.738 211.715 336.402 208.75C333.067 205.785 331.399 200.967 331.399 194.296Z" fill="#002922"/>
<path d="M239.201 249.055H209.922L184.072 140.464H214.926L219.836 177.896L227.156 214.217L236.514 177.896L238.923 167.982L231.789 140.464H262.087L268.758 177.896L276.911 214.217L282.007 177.896L287.474 140.464H315.641L291.736 249.055H260.141L248.744 205.414L239.201 249.055Z" fill="#002922"/>
<path d="M128.859 207.082C128.859 217.336 129.632 224.47 131.176 228.485C132.782 232.5 135.561 234.508 139.515 234.508C142.418 234.508 144.611 233.797 146.093 232.377C147.576 230.894 148.687 227.898 149.429 223.389C150.232 218.818 150.633 211.993 150.633 202.913V180.583C150.633 171.75 149.768 165.172 148.039 160.848C146.309 156.524 143.468 154.362 139.515 154.362C135.561 154.362 132.782 156.493 131.176 160.755C129.632 164.955 128.859 172.646 128.859 183.826V207.082ZM137.569 251C132.442 251 127.809 250.537 123.671 249.61C119.594 248.684 116.073 247.387 113.108 245.719C110.143 244.051 107.549 241.92 105.325 239.326C103.163 236.731 101.403 233.952 100.044 230.987C98.7468 228.022 97.6967 224.563 96.8937 220.61C96.0907 216.595 95.5348 212.61 95.226 208.657C94.9171 204.642 94.7627 200.133 94.7627 195.13C94.7627 187.717 95.1333 181.262 95.8745 175.765C96.6775 170.268 98.1291 165.11 100.229 160.292C102.329 155.412 105.109 151.459 108.568 148.432C112.089 145.405 116.598 143.027 122.096 141.298C127.655 139.568 134.202 138.703 141.738 138.703C146.927 138.703 151.591 139.198 155.729 140.186C159.868 141.112 163.419 142.41 166.384 144.077C169.349 145.745 171.913 147.907 174.075 150.563C176.298 153.219 178.059 156.061 179.356 159.087C180.715 162.052 181.796 165.542 182.599 169.557C183.402 173.572 183.958 177.556 184.267 181.51C184.575 185.463 184.73 189.941 184.73 194.944C184.73 202.357 184.328 208.812 183.525 214.309C182.722 219.807 181.271 224.964 179.171 229.782C177.07 234.539 174.26 238.43 170.739 241.457C167.218 244.422 162.678 246.769 157.119 248.499C151.621 250.166 145.105 251 137.569 251Z" fill="#002922"/>
<path d="M30.6685 249.055H0V140.464H30.6685V183.455H54.4806V140.464H85.1491V249.055H54.4806V204.766H30.6685V249.055Z" fill="#002922"/>
<path d="M547.586 108.961H481.894V0.370605H546.196L544.343 22.237L512.563 21.3104V42.2503H537.579V63.9313L512.563 62.0782V86.7242L547.586 85.7977V108.961Z" fill="#002922"/>
<path d="M414.071 108.961V0.370605H444.74V84.1299H472.351V108.961H414.071Z" fill="#002922"/>
<path d="M351.622 110.907C345.26 110.907 339.608 110.289 334.667 109.054C329.787 107.818 325.772 106.151 322.622 104.051C319.533 101.95 316.97 99.3561 314.931 96.2676C312.955 93.1174 311.565 89.8127 310.762 86.3536C309.959 82.8945 309.557 79.0648 309.557 74.8645V0.370605H342.542V70.6951C342.542 78.5398 343.345 83.9446 344.951 86.9095C346.619 89.8127 349.028 91.2643 352.178 91.2643C353.908 91.2643 355.421 90.9863 356.718 90.4304C358.015 89.8127 359.22 88.7935 360.332 87.3728C361.444 85.8903 362.278 83.7902 362.833 81.0723C363.451 78.2927 363.76 74.9263 363.76 70.973V0.370605H393.039V75.4204C393.039 79.559 392.668 83.296 391.927 86.6316C391.247 89.9671 389.95 93.21 388.035 96.3603C386.182 99.4487 383.712 102.043 380.623 104.143C377.596 106.182 373.612 107.818 368.671 109.054C363.791 110.289 358.108 110.907 351.622 110.907Z" fill="#002922"/>
<path d="M239.14 73.2894V109.425H208.379V0.833884H220.609C223.574 0.833884 227.991 0.710346 233.859 0.46327C239.727 0.154423 244.576 0 248.406 0C261.748 0 271.693 2.93405 278.24 8.80214C284.85 14.6702 288.154 23.6577 288.154 35.7645C288.154 42.9297 286.579 49.292 283.429 54.8512C280.341 60.4105 276.233 64.827 271.106 68.1008C273.886 68.7802 276.264 70.3554 278.24 72.8261C280.279 75.2969 281.854 78.231 282.966 81.6283C284.078 84.9638 285.035 88.3611 285.838 91.8202C286.703 95.2175 287.66 98.584 288.71 101.92C289.822 105.255 291.027 107.757 292.324 109.425H258.134C257.455 108.56 256.93 106.151 256.559 102.197C256.189 98.1825 255.664 93.3954 254.984 87.8361C254.366 82.2151 253.471 77.5206 252.297 73.7527C252.174 73.7527 252.019 73.7527 251.834 73.7527C250.66 73.7527 249.394 73.7527 248.035 73.7527C246.738 73.6909 245.595 73.6291 244.607 73.5674C243.619 73.5056 242.569 73.4438 241.457 73.3821C240.407 73.3203 239.634 73.2894 239.14 73.2894ZM239.14 56.0557H242.105C243.649 56.0557 244.947 55.994 245.997 55.8704C247.047 55.7469 248.19 55.5307 249.425 55.2219C250.722 54.8512 251.772 54.2953 252.575 53.5541C253.44 52.8128 254.243 51.8554 254.984 50.6818C255.725 49.5082 256.281 47.9948 256.652 46.1418C257.023 44.2887 257.208 42.1267 257.208 39.656V32.3363C257.208 26.9623 255.787 23.2253 252.946 21.1251C250.166 18.9632 246.151 17.8822 240.901 17.8822H239.14V56.0557Z" fill="#002922"/>
<path d="M132.403 108.591V74.6792L101.641 0H136.757L146.301 27.9815L152.694 50.8671L157.975 27.9815L165.202 0H192.813L165.665 74.1233V108.591H132.403Z" fill="#002922"/>
<path d="M31.1318 108.591H0.463257V0H31.1318V42.9915H54.9439V0H85.6124V108.591H54.9439V64.302H31.1318V108.591Z" fill="#002922"/>
</svg>
